# xmcd
#
# Track frame offsets:
#	150
#	4262
#	24620
#	42995
#	55822
#	70235
#	86815
#	103605
#	125665
#	143445
#	164860
#	180565
#	197910
#	211762
#	223352
#	245835
#	266242
#	286165
#	306545
#	325957
#
# Disc length: 4468 seconds
#
# Revision: 0
# Processed by: cddbd v1.5.2PL0 Copyright (c) Steve Scherf et al.
# Submitted via: dBpowerAMP V4.0
#
DISCID=40117214
DTITLE=Mind,Body and Soul - Da Home of Capone
DYEAR=2001
DGENRE=Gangsta rap
TTITLE0=Intro
TTITLE1=Biography
TTITLE2=Ghetto Dreams
TTITLE3=Dirty Money
TTITLE4=Get That
TTITLE5=Real SHit
TTITLE6=Dust 2 Dawn
TTITLE7=Who Da Hottest
TTITLE8=Squeeze First
TTITLE9=Home of Capone
TTITLE10=Tomorrow
TTITLE11=one Love
TTITLE12=Desolate
TTITLE13=what The Hell
TTITLE14=Classy Ho's
TTITLE15=Sick Flow
TTITLE16=Lost
TTITLE17=Barbarian Minds
TTITLE18=Ova wit Feat. Twista And Shawna
TTITLE19=Outro
EXTD=
EXTT0=
EXTT1=
EXTT2=
EXTT3=
EXTT4=
EXTT5=
EXTT6=
EXTT7=
EXTT8=
EXTT9=
EXTT10=
EXTT11=
EXTT12=
EXTT13=
EXTT14=
EXTT15=
EXTT16=
EXTT17=
EXTT18=
EXTT19=
PLAYORDER=
